<svg width="313" height="449" viewBox="0 0 313 449" fill="none" xmlns="http://www.w3.org/2000/svg">
<g filter="url(#filter0_d)">
<path d="M119 259C108.446 189.341 144.963 119 153.514 106C202.516 31.5 248 2.4181e-05 248 2.4181e-05C248 2.4181e-05 148.513 9.11766e-05 62.5134 2.89493e-05C-23.4867 -3.32779e-05 -0.0967634 2.4181e-05 -0.0967634 2.4181e-05C-0.0967634 13.0001 -0.0960708 42.0001 -0.0960529 25.0001L-0.0964992 449.42H309C253 449.42 208 416 188 398.5C132.384 349.836 124 292 119 259Z" fill="#B07FFF"/>
</g>
<defs>
<filter id="filter0_d" x="-7" y="0" width="320" height="457.42" filterUnits="userSpaceOnUse" color-interpolation-filters="sRGB">
<feFlood flood-opacity="0" result="BackgroundImageFix"/>
<feColorMatrix in="SourceAlpha" type="matrix" values="0 0 0 0 0 0 0 0 0 0 0 0 0 0 0 0 0 0 127 0"/>
<feOffset dy="4"/>
<feGaussianBlur stdDeviation="2"/>
<feColorMatrix type="matrix" values="0 0 0 0 0 0 0 0 0 0 0 0 0 0 0 0 0 0 0.25 0"/>
<feBlend mode="normal" in2="BackgroundImageFix" result="effect1_dropShadow"/>
<feBlend mode="normal" in="SourceGraphic" in2="effect1_dropShadow" result="shape"/>
</filter>
</defs>
</svg>
