<svg width="1600" height="960" viewBox="0 0 1600 960" fill="none" xmlns="http://www.w3.org/2000/svg">
<g clip-path="url(#clip0)">
<path d="M1760 0H-160V960H1760V0Z" fill="white"/>
<path d="M223.448 1068.9C420.309 1068.9 579.896 909.309 579.896 712.448C579.896 515.587 420.309 356 223.448 356C26.5871 356 -133 515.587 -133 712.448C-133 909.309 26.5871 1068.9 223.448 1068.9Z" fill="#00BFA6"/>
<path d="M261.793 270.405C849.1 729.208 247.578 524.462 123.202 524.462C-1.17345 524.462 -102 416.461 -102 283.234C-102 179.036 -46.5103 81.689 -22.329 44.214C-192.613 -96.8829 -11.2854 27.9803 -11.2854 27.9803C-11.2854 27.9803 -15.5922 33.7737 -22.329 44.214C31.5501 88.8581 120.63 160.128 261.793 270.405Z" fill="#00BFA6"/>
</g>
<defs>
<clipPath id="clip0">
<rect width="1600" height="960" fill="white"/>
</clipPath>
</defs>
</svg>
